<svg width="703" height="112" viewBox="0 0 703 112" fill="none" xmlns="http://www.w3.org/2000/svg">
<path d="M5 106.841C5 99.5111 10.1291 92.6371 14.0556 86.8408C24.8872 70.8513 39.3767 55.0715 55.4444 44.2853C75.1057 31.0868 98.3663 25.7855 121.167 20.8408C150.124 14.5609 179.3 8.39025 208.889 6.06305C276.028 0.782484 342.44 16.0333 407 32.8408C455.88 45.5664 502.962 62.4053 550.556 79.063C575.099 87.6531 599.696 94.0615 625.778 95.6186L626.165 95.6417C643.452 96.6743 664.317 97.9207 679.778 88.8408C687.864 84.0919 696.774 74.5595 697 64.6186C697.104 60.033 697 55.4272 697 50.8408" stroke="#BEE9E8" stroke-width="10" stroke-linecap="round"/>
</svg>
